<svg width="31" height="30" viewBox="0 0 31 30" fill="none" xmlns="http://www.w3.org/2000/svg">
<path d="M24.0586 5H6.55859C5.56403 5 4.6102 5.39509 3.90694 6.09835C3.20368 6.80161 2.80859 7.75544 2.80859 8.75V21.25C2.80859 22.2446 3.20368 23.1984 3.90694 23.9017C4.6102 24.6049 5.56403 25 6.55859 25H24.0586C25.0532 25 26.007 24.6049 26.7102 23.9017C27.4135 23.1984 27.8086 22.2446 27.8086 21.25V8.75C27.8086 7.75544 27.4135 6.80161 26.7102 6.09835C26.007 5.39509 25.0532 5 24.0586 5V5ZM24.0586 7.5L15.9336 13.0875C15.7436 13.1972 15.528 13.255 15.3086 13.255C15.0892 13.255 14.8736 13.1972 14.6836 13.0875L6.55859 7.5H24.0586Z" fill="#322E2E"/>
</svg>
