<svg width="31" height="29" viewBox="0 0 31 29" fill="none" xmlns="http://www.w3.org/2000/svg">
<g clip-path="url(#clip0_1197_117)">
<path d="M7.47763 28.6738V9.32763H1.04735V28.6738H7.47763ZM4.26332 6.68464C6.50568 6.68464 7.90143 5.19908 7.90143 3.34262C7.85965 1.4443 6.50576 -3.05176e-05 4.30588 -3.05176e-05C2.10633 -3.05176e-05 0.667969 1.44433 0.667969 3.34262C0.667969 5.19917 2.06338 6.68464 4.22135 6.68464H4.26312H4.26332ZM11.0368 28.6738H17.4671V17.87C17.4671 17.2918 17.5088 16.7142 17.6786 16.3008C18.1435 15.1456 19.2015 13.9491 20.9778 13.9491C23.3047 13.9491 24.2356 15.7232 24.2356 18.3239V28.6737H30.6654V17.5808C30.6654 11.6384 27.4931 8.87343 23.2624 8.87343C19.7935 8.87343 18.2704 10.8124 17.4243 12.133H17.4672V9.32723H11.0369C11.1213 11.1426 11.0369 28.6734 11.0369 28.6734L11.0368 28.6738Z" fill="#FDFF8E"/>
</g>
<defs>
<clipPath id="clip0_1197_117">
<rect width="30" height="28.6738" fill="white" transform="translate(0.666016)"/>
</clipPath>
</defs>
</svg>
